<svg id="_x33_0" enable-background="new 0 0 64 64" height="512" viewBox="0 0 64 64" width="512" xmlns="http://www.w3.org/2000/svg"><g><path d="m24 20c-.552 0-1-.449-1-1h-2c0 1.654 1.346 3 3 3s3-1.346 3-3h-2c0 .551-.448 1-1 1z"/><path d="m51 29h2v2h-2z"/><path d="m55 29h2v2h-2z"/><path d="m59 29h2v2h-2z"/><path d="m50 53c1.654 0 3-1.346 3-3s-1.346-3-3-3-3 1.346-3 3 1.346 3 3 3zm0-4c.552 0 1 .449 1 1s-.448 1-1 1-1-.449-1-1 .448-1 1-1z"/><path d="m60.36 53h2.64v-6h-2.64c-.479 0-.905-.307-1.127-.843-.211-.501-.128-1.025.215-1.367l1.868-1.858-4.247-4.248-1.859 1.867c-.344.343-.868.425-1.41.198-.486-.201-.8-.637-.8-1.11v-2.639h-6v2.639c0 .473-.313.909-.842 1.128-.411.171-.83.138-1.158-.064v-9.703c0-.743-.412-1.385-1.015-1.73.66-.98 1.015-2.133 1.015-3.341v-2.929h12.103c1.597 0 2.912-1.249 2.996-2.842l1.037-19.708-8.027 8.027-6.109-8.144-6.108 8.144-8.028-8.027 1.037 19.708c.026.488.184.946.424 1.355-.799.539-1.325 1.453-1.325 2.487v2.343c0 1.335.521 2.591 1.465 3.535l.535.536v11.586c0 1.654-1.346 3-3 3h-8.519l-3.481-4.351v-5.841c.656.123 1.324.192 2 .192 3.309 0 6-2.691 6-6v-3.279l3-1v-.721c0-.277-.051-6.572-3.518-11.66.947-1.194 1.518-2.7 1.518-4.34 0-3.86-3.141-7-7-7h-1.938c-4.729 0-9.152 2.243-11.955 6.021-.09-.004-.178-.021-.269-.021-3.771 0-6.838 3.067-6.838 6.838 0 4.876 1.384 9.628 4.002 13.741l2.998 4.712v5.241l-2.945 2.454c-1.942 1.618-3.055 3.995-3.055 6.523 0 2.08.754 3.985 2 5.462v11.029h22v-8h7c2.446 0 4.72-.739 6.619-2h.021c.479 0 .905.307 1.127.843.211.501.128 1.025-.215 1.367l-1.868 1.858 4.247 4.248 1.859-1.867c.343-.343.865-.426 1.41-.198.493.205.8.63.8 1.11v2.639h6v-2.639c0-.48.307-.906.842-1.128.501-.21 1.024-.127 1.368.216l1.859 1.867 4.247-4.248-1.868-1.858c-.343-.342-.426-.866-.197-1.41.204-.493.63-.8 1.109-.8zm-23.946-24-.535-.536c-.559-.558-.879-1.331-.879-2.121v-2.343c0-.551.448-1 1-1s1 .449 1 1v1h2v-1c0-1.302-.839-2.402-2-2.816v-1.184c0-1.654 1.346-3 3-3s3 1.346 3 3v5.929c0 1.069-.416 2.073-1.172 2.829l-.242.242zm4.694-17.478 5.892-7.855 5.892 7.856 5.973-5.973-.764 14.503c-.028.531-.466.947-.998.947h-12.103v-1c0-2.757-2.243-5-5-5-1.795 0-3.359.959-4.241 2.384l-.623-11.834zm-15.108 12.757v3.721h-1.764c-.998 0-1.896-.555-2.342-1.447l-1.789.895c.789 1.574 2.372 2.552 4.131 2.552h1.622c-.447 1.72-1.999 3-3.858 3-1.764 0-3.473-.518-4.941-1.496l-.504-.336-1.109 1.664.504.336c.648.432 1.336.788 2.051 1.07v5.703c-2.125-.135-4.227-.673-6.131-1.625l-1.87-.934v-4.877c1.904-1.421 3.265-3.442 3.844-5.759l.265-1.052-.866-.864c-.801-.802-1.242-1.868-1.242-3-.001-1.01.819-1.83 1.827-1.83.481 0 .952.195 1.293.536l2.271 2.269 2.951-7.871c.215.035.432.066.657.066h1c1.492 0 2.873-.473 4.01-1.271 2.326 3.588 2.844 7.89 2.958 9.561zm-19.311 2.226c-2.414-3.792-3.689-8.172-3.689-12.667 0-2.668 2.17-4.838 4.838-4.838 1.46 0 2.751.931 3.214 2.316l1.896-.633c-.465-1.394-1.459-2.495-2.713-3.118 2.435-2.875 6.013-4.565 9.828-4.565h1.937c2.757 0 5 2.243 5 5s-2.243 5-5 5h-1c-1.103 0-2-.897-2-2s.897-2 2-2v-2c-2.206 0-4 1.794-4 4 0 1.262.599 2.376 1.516 3.11l-1.907 5.085-.073-.073c-.723-.724-1.684-1.122-2.708-1.122-2.11 0-3.828 1.717-3.828 3.829 0 1.667.649 3.234 1.828 4.415l.063.063c-.424 1.66-1.349 3.129-2.634 4.235zm17.311 34.495h-18v-7.298c1.305.817 2.841 1.298 4.491 1.298h13.509zm-13.509-8c-3.579 0-6.491-2.912-6.491-6.491 0-1.932.852-3.75 2.336-4.987l2.802-2.335 1.837.919c2.333 1.166 4.927 1.807 7.533 1.88l2.411 3.014h-9.919v2h21c2.757 0 5-2.243 5-5v-11h6v12c0 5.514-4.486 10-10 10zm47.547 3.627.446.444-1.413 1.413-.445-.447c-.914-.917-2.311-1.171-3.592-.635-1.236.514-2.034 1.675-2.034 2.959v.639h-2v-.639c0-1.284-.798-2.445-2.068-2.972-1.247-.526-2.645-.27-3.558.648l-.445.447-1.413-1.413.446-.445c.919-.914 1.173-2.311.635-3.592-.257-.619-.677-1.129-1.193-1.483.606-.596 1.148-1.255 1.617-1.967-.008.139-.021.276-.021.416 0 3.86 3.141 7 7 7s7-3.14 7-7-3.141-7-7-7c-2.085 0-3.954.921-5.238 2.372.155-.767.238-1.56.238-2.372v-.183c.634.12 1.315.053 1.966-.22 1.235-.513 2.034-1.673 2.034-2.958v-.639h2v.639c0 1.285.799 2.445 2.068 2.972 1.247.524 2.645.269 3.558-.648l.445-.447 1.413 1.413-.446.445c-.919.914-1.173 2.311-.635 3.592.513 1.235 1.673 2.034 2.957 2.034h.64v2h-.64c-1.284 0-2.444.799-2.971 2.067-.524 1.249-.27 2.646.649 3.56zm-13.038-6.627c0-2.757 2.243-5 5-5s5 2.243 5 5-2.243 5-5 5-5-2.243-5-5z"/></g></svg>